<mxfile host="Electron" agent="Mozilla/5.0 (Windows NT 10.0; Win64; x64) AppleWebKit/537.36 (KHTML, like Gecko) draw.io/24.7.8 Chrome/128.0.6613.36 Electron/32.0.1 Safari/537.36" version="24.7.8">
  <diagram name="Page-1" id="sl89cjiz3-5UVXtt934P">
    <mxGraphModel dx="202" dy="121" grid="1" gridSize="10" guides="1" tooltips="1" connect="1" arrows="1" fold="1" page="1" pageScale="1" pageWidth="827" pageHeight="1169" math="0" shadow="0">
      <root>
        <mxCell id="0" />
        <mxCell id="1" parent="0" />
        <mxCell id="l4umZkbyTSKqwTKvspyr-29" value="" style="endArrow=none;dashed=1;html=1;dashPattern=1 3;strokeWidth=2;rounded=0;fontSize=11;" edge="1" parent="1">
          <mxGeometry width="50" height="50" relative="1" as="geometry">
            <mxPoint x="130" y="284.40999999999997" as="sourcePoint" />
            <mxPoint x="180" y="284.40999999999997" as="targetPoint" />
          </mxGeometry>
        </mxCell>
        <mxCell id="l4umZkbyTSKqwTKvspyr-44" value="" style="shape=parallelogram;perimeter=parallelogramPerimeter;whiteSpace=wrap;html=1;fixedSize=1;flipV=1;flipH=0;size=20;rotation=90;strokeColor=default;align=center;verticalAlign=middle;fontFamily=Helvetica;fontSize=12;fontColor=default;fillColor=#E6FFCC;" vertex="1" parent="1">
          <mxGeometry x="149.37" y="252.82" width="80.63" height="63.75" as="geometry" />
        </mxCell>
        <mxCell id="l4umZkbyTSKqwTKvspyr-43" value="" style="shape=parallelogram;perimeter=parallelogramPerimeter;whiteSpace=wrap;html=1;fixedSize=1;flipV=1;flipH=0;size=20;rotation=90;strokeColor=default;align=center;verticalAlign=middle;fontFamily=Helvetica;fontSize=12;fontColor=default;fillColor=#CCE5FF;" vertex="1" parent="1">
          <mxGeometry x="159.37" y="252.82" width="80.63" height="63.75" as="geometry" />
        </mxCell>
        <mxCell id="l4umZkbyTSKqwTKvspyr-4" value="" style="shape=parallelogram;perimeter=parallelogramPerimeter;whiteSpace=wrap;html=1;fixedSize=1;flipV=1;flipH=0;size=20;rotation=90;fillColor=#FFCCCC;" vertex="1" parent="1">
          <mxGeometry x="190" y="252.82" width="80.63" height="63.75" as="geometry" />
        </mxCell>
        <mxCell id="l4umZkbyTSKqwTKvspyr-5" value="" style="shape=parallelogram;perimeter=parallelogramPerimeter;whiteSpace=wrap;html=1;fixedSize=1;flipV=1;flipH=0;size=20;rotation=90;fillColor=#E6FFCC;" vertex="1" parent="1">
          <mxGeometry x="200" y="252.82" width="80.63" height="63.75" as="geometry" />
        </mxCell>
        <mxCell id="l4umZkbyTSKqwTKvspyr-6" value="" style="shape=parallelogram;perimeter=parallelogramPerimeter;whiteSpace=wrap;html=1;fixedSize=1;flipV=1;flipH=0;size=20;rotation=90;strokeColor=default;align=center;verticalAlign=middle;fontFamily=Helvetica;fontSize=12;fontColor=default;fillColor=#E6FFCC;" vertex="1" parent="1">
          <mxGeometry x="210" y="252.82" width="80.63" height="63.75" as="geometry" />
        </mxCell>
        <mxCell id="l4umZkbyTSKqwTKvspyr-7" value="" style="shape=parallelogram;perimeter=parallelogramPerimeter;whiteSpace=wrap;html=1;fixedSize=1;flipV=1;flipH=0;size=20;rotation=90;fillColor=#CCE5FF;" vertex="1" parent="1">
          <mxGeometry x="220" y="252.82" width="80.63" height="63.75" as="geometry" />
        </mxCell>
        <mxCell id="l4umZkbyTSKqwTKvspyr-8" value="" style="shape=parallelogram;perimeter=parallelogramPerimeter;whiteSpace=wrap;html=1;fixedSize=1;flipV=1;flipH=0;size=20;rotation=90;strokeColor=default;align=center;verticalAlign=middle;fontFamily=Helvetica;fontSize=12;fontColor=default;fillColor=#E6FFCC;" vertex="1" parent="1">
          <mxGeometry x="230" y="252.82" width="80.63" height="63.75" as="geometry" />
        </mxCell>
        <mxCell id="l4umZkbyTSKqwTKvspyr-9" value="" style="shape=parallelogram;perimeter=parallelogramPerimeter;whiteSpace=wrap;html=1;fixedSize=1;flipV=1;flipH=0;size=20;rotation=90;strokeColor=default;align=center;verticalAlign=middle;fontFamily=Helvetica;fontSize=12;fontColor=default;fillColor=#E6FFCC;" vertex="1" parent="1">
          <mxGeometry x="240" y="252.82" width="80.63" height="63.75" as="geometry" />
        </mxCell>
        <mxCell id="l4umZkbyTSKqwTKvspyr-10" value="" style="shape=parallelogram;perimeter=parallelogramPerimeter;whiteSpace=wrap;html=1;fixedSize=1;flipV=1;flipH=0;size=20;rotation=90;strokeColor=default;align=center;verticalAlign=middle;fontFamily=Helvetica;fontSize=12;fontColor=default;fillColor=#CCE5FF;" vertex="1" parent="1">
          <mxGeometry x="250" y="252.82" width="80.63" height="63.75" as="geometry" />
        </mxCell>
        <mxCell id="l4umZkbyTSKqwTKvspyr-11" value="" style="shape=parallelogram;perimeter=parallelogramPerimeter;whiteSpace=wrap;html=1;fixedSize=1;flipV=1;flipH=0;size=20;rotation=90;fillColor=#ffcccc;" vertex="1" parent="1">
          <mxGeometry x="280.63" y="252.82" width="80.63" height="63.75" as="geometry" />
        </mxCell>
        <mxCell id="l4umZkbyTSKqwTKvspyr-13" value="" style="shape=parallelogram;perimeter=parallelogramPerimeter;whiteSpace=wrap;html=1;fixedSize=1;flipV=1;flipH=0;size=20;rotation=90;strokeColor=default;align=center;verticalAlign=middle;fontFamily=Helvetica;fontSize=12;fontColor=default;fillColor=#E6FFCC;" vertex="1" parent="1">
          <mxGeometry x="290.63" y="252.82" width="80.63" height="63.75" as="geometry" />
        </mxCell>
        <mxCell id="l4umZkbyTSKqwTKvspyr-14" value="" style="shape=parallelogram;perimeter=parallelogramPerimeter;whiteSpace=wrap;html=1;fixedSize=1;flipV=1;flipH=0;size=20;rotation=90;strokeColor=default;align=center;verticalAlign=middle;fontFamily=Helvetica;fontSize=12;fontColor=default;fillColor=#E6FFCC;" vertex="1" parent="1">
          <mxGeometry x="300.63" y="252.82" width="80.63" height="63.75" as="geometry" />
        </mxCell>
        <mxCell id="l4umZkbyTSKqwTKvspyr-15" value="I" style="text;html=1;align=center;verticalAlign=middle;whiteSpace=wrap;rounded=0;fontSize=8;fontFamily=Comic Sans MS;" vertex="1" parent="1">
          <mxGeometry x="194" y="327" width="10" height="10" as="geometry" />
        </mxCell>
        <mxCell id="l4umZkbyTSKqwTKvspyr-17" value="P" style="text;html=1;align=center;verticalAlign=middle;whiteSpace=wrap;rounded=0;fontSize=8;fontFamily=Comic Sans MS;" vertex="1" parent="1">
          <mxGeometry x="224" y="327" width="10" height="10" as="geometry" />
        </mxCell>
        <mxCell id="l4umZkbyTSKqwTKvspyr-18" value="B" style="text;html=1;align=center;verticalAlign=middle;whiteSpace=wrap;rounded=0;fontSize=8;fontFamily=Comic Sans MS;" vertex="1" parent="1">
          <mxGeometry x="214" y="327" width="10" height="10" as="geometry" />
        </mxCell>
        <mxCell id="l4umZkbyTSKqwTKvspyr-19" value="P" style="text;html=1;align=center;verticalAlign=middle;whiteSpace=wrap;rounded=0;fontSize=8;fontFamily=Comic Sans MS;" vertex="1" parent="1">
          <mxGeometry x="254" y="327" width="10" height="10" as="geometry" />
        </mxCell>
        <mxCell id="l4umZkbyTSKqwTKvspyr-20" value="B" style="text;html=1;align=center;verticalAlign=middle;whiteSpace=wrap;rounded=0;fontSize=8;fontFamily=Comic Sans MS;" vertex="1" parent="1">
          <mxGeometry x="204" y="327" width="10" height="10" as="geometry" />
        </mxCell>
        <mxCell id="l4umZkbyTSKqwTKvspyr-21" value="B" style="text;html=1;align=center;verticalAlign=middle;whiteSpace=wrap;rounded=0;fontSize=8;fontFamily=Comic Sans MS;" vertex="1" parent="1">
          <mxGeometry x="234" y="327" width="10" height="10" as="geometry" />
        </mxCell>
        <mxCell id="l4umZkbyTSKqwTKvspyr-22" value="B" style="text;html=1;align=center;verticalAlign=middle;whiteSpace=wrap;rounded=0;fontSize=8;fontFamily=Comic Sans MS;" vertex="1" parent="1">
          <mxGeometry x="244" y="327" width="10" height="10" as="geometry" />
        </mxCell>
        <mxCell id="l4umZkbyTSKqwTKvspyr-25" value="" style="shape=parallelogram;perimeter=parallelogramPerimeter;whiteSpace=wrap;html=1;fixedSize=1;flipV=1;flipH=0;size=20;rotation=90;strokeColor=default;align=center;verticalAlign=middle;fontFamily=Helvetica;fontSize=12;fontColor=default;fillColor=#CCE5FF;" vertex="1" parent="1">
          <mxGeometry x="310.63" y="252.82" width="80.63" height="63.75" as="geometry" />
        </mxCell>
        <mxCell id="l4umZkbyTSKqwTKvspyr-28" value="" style="endArrow=none;dashed=1;html=1;dashPattern=1 3;strokeWidth=2;rounded=0;fontSize=11;" edge="1" parent="1">
          <mxGeometry width="50" height="50" relative="1" as="geometry">
            <mxPoint x="350" y="284.54" as="sourcePoint" />
            <mxPoint x="400" y="284.54" as="targetPoint" />
          </mxGeometry>
        </mxCell>
        <mxCell id="l4umZkbyTSKqwTKvspyr-31" value="I" style="text;html=1;align=center;verticalAlign=middle;whiteSpace=wrap;rounded=0;fontSize=8;fontFamily=Comic Sans MS;" vertex="1" parent="1">
          <mxGeometry x="283.63" y="327" width="10" height="10" as="geometry" />
        </mxCell>
        <mxCell id="l4umZkbyTSKqwTKvspyr-32" value="P" style="text;html=1;align=center;verticalAlign=middle;whiteSpace=wrap;rounded=0;fontSize=8;fontFamily=Comic Sans MS;" vertex="1" parent="1">
          <mxGeometry x="313.63" y="327" width="10" height="10" as="geometry" />
        </mxCell>
        <mxCell id="l4umZkbyTSKqwTKvspyr-33" value="B" style="text;html=1;align=center;verticalAlign=middle;whiteSpace=wrap;rounded=0;fontSize=8;fontFamily=Comic Sans MS;" vertex="1" parent="1">
          <mxGeometry x="303.63" y="327" width="10" height="10" as="geometry" />
        </mxCell>
        <mxCell id="l4umZkbyTSKqwTKvspyr-34" value="B" style="text;html=1;align=center;verticalAlign=middle;whiteSpace=wrap;rounded=0;fontSize=8;fontFamily=Comic Sans MS;" vertex="1" parent="1">
          <mxGeometry x="293.63" y="327" width="10" height="10" as="geometry" />
        </mxCell>
        <mxCell id="l4umZkbyTSKqwTKvspyr-36" value="" style="rounded=0;whiteSpace=wrap;html=1;" vertex="1" parent="1">
          <mxGeometry x="193.99999999999997" y="390" width="83.48" height="64.86" as="geometry" />
        </mxCell>
        <mxCell id="l4umZkbyTSKqwTKvspyr-37" value="" style="shape=curlyBracket;whiteSpace=wrap;html=1;rounded=1;flipH=1;labelPosition=right;verticalLabelPosition=middle;align=left;verticalAlign=middle;rotation=90;size=0.5;" vertex="1" parent="1">
          <mxGeometry x="224.82" y="313.57" width="11" height="64.57" as="geometry" />
        </mxCell>
        <mxCell id="l4umZkbyTSKqwTKvspyr-42" value="GoP" style="text;html=1;align=center;verticalAlign=middle;whiteSpace=wrap;rounded=0;fontFamily=Garamond;" vertex="1" parent="1">
          <mxGeometry x="200" y="345.14" width="60" height="30" as="geometry" />
        </mxCell>
        <mxCell id="l4umZkbyTSKqwTKvspyr-46" value="P" style="text;html=1;align=center;verticalAlign=middle;whiteSpace=wrap;rounded=0;fontSize=8;fontFamily=Comic Sans MS;" vertex="1" parent="1">
          <mxGeometry x="163.37" y="327" width="10" height="10" as="geometry" />
        </mxCell>
        <mxCell id="l4umZkbyTSKqwTKvspyr-47" value="B" style="text;html=1;align=center;verticalAlign=middle;whiteSpace=wrap;rounded=0;fontSize=8;fontFamily=Comic Sans MS;" vertex="1" parent="1">
          <mxGeometry x="153.37" y="327" width="10" height="10" as="geometry" />
        </mxCell>
        <mxCell id="l4umZkbyTSKqwTKvspyr-49" value="" style="curved=1;endArrow=classic;html=1;rounded=0;endSize=3;" edge="1" parent="1">
          <mxGeometry width="50" height="50" relative="1" as="geometry">
            <mxPoint x="157.37" y="341.14" as="sourcePoint" />
            <mxPoint x="188" y="426" as="targetPoint" />
            <Array as="points">
              <mxPoint x="157.37" y="391.14" />
            </Array>
          </mxGeometry>
        </mxCell>
        <mxCell id="l4umZkbyTSKqwTKvspyr-50" value="Picture (Frame)" style="text;html=1;align=center;verticalAlign=middle;whiteSpace=wrap;rounded=0;fontFamily=Garamond;" vertex="1" parent="1">
          <mxGeometry x="195.9" y="450.86" width="79.68" height="30" as="geometry" />
        </mxCell>
        <mxCell id="l4umZkbyTSKqwTKvspyr-52" value="" style="endArrow=none;html=1;rounded=0;" edge="1" parent="1">
          <mxGeometry width="50" height="50" relative="1" as="geometry">
            <mxPoint x="193.74" y="400" as="sourcePoint" />
            <mxPoint x="277.74" y="400" as="targetPoint" />
          </mxGeometry>
        </mxCell>
        <mxCell id="l4umZkbyTSKqwTKvspyr-53" value="" style="endArrow=none;html=1;rounded=0;" edge="1" parent="1">
          <mxGeometry width="50" height="50" relative="1" as="geometry">
            <mxPoint x="193.48000000000002" y="410" as="sourcePoint" />
            <mxPoint x="277.48" y="410" as="targetPoint" />
          </mxGeometry>
        </mxCell>
        <mxCell id="l4umZkbyTSKqwTKvspyr-54" value="" style="endArrow=none;html=1;rounded=0;" edge="1" parent="1">
          <mxGeometry width="50" height="50" relative="1" as="geometry">
            <mxPoint x="193.48000000000002" y="420" as="sourcePoint" />
            <mxPoint x="277.48" y="420" as="targetPoint" />
          </mxGeometry>
        </mxCell>
        <mxCell id="l4umZkbyTSKqwTKvspyr-55" value="" style="endArrow=none;html=1;rounded=0;" edge="1" parent="1">
          <mxGeometry width="50" height="50" relative="1" as="geometry">
            <mxPoint x="194" y="430" as="sourcePoint" />
            <mxPoint x="278" y="430" as="targetPoint" />
          </mxGeometry>
        </mxCell>
        <mxCell id="l4umZkbyTSKqwTKvspyr-57" value="" style="endArrow=none;dashed=1;html=1;dashPattern=1 3;strokeWidth=1;rounded=0;" edge="1" parent="1">
          <mxGeometry width="50" height="50" relative="1" as="geometry">
            <mxPoint x="235.82" y="450.86" as="sourcePoint" />
            <mxPoint x="235.82" y="430.86" as="targetPoint" />
          </mxGeometry>
        </mxCell>
        <mxCell id="l4umZkbyTSKqwTKvspyr-59" value="" style="endArrow=none;html=1;rounded=0;" edge="1" parent="1">
          <mxGeometry width="50" height="50" relative="1" as="geometry">
            <mxPoint x="203.72" y="390" as="sourcePoint" />
            <mxPoint x="203.72" y="430" as="targetPoint" />
          </mxGeometry>
        </mxCell>
        <mxCell id="l4umZkbyTSKqwTKvspyr-60" value="" style="endArrow=none;html=1;rounded=0;" edge="1" parent="1">
          <mxGeometry width="50" height="50" relative="1" as="geometry">
            <mxPoint x="213.72" y="390" as="sourcePoint" />
            <mxPoint x="213.72" y="430" as="targetPoint" />
          </mxGeometry>
        </mxCell>
        <mxCell id="l4umZkbyTSKqwTKvspyr-61" value="" style="endArrow=none;html=1;rounded=0;" edge="1" parent="1">
          <mxGeometry width="50" height="50" relative="1" as="geometry">
            <mxPoint x="223.72" y="390" as="sourcePoint" />
            <mxPoint x="223.72" y="430" as="targetPoint" />
          </mxGeometry>
        </mxCell>
        <mxCell id="l4umZkbyTSKqwTKvspyr-62" value="" style="endArrow=none;html=1;rounded=0;" edge="1" parent="1">
          <mxGeometry width="50" height="50" relative="1" as="geometry">
            <mxPoint x="233.72" y="390" as="sourcePoint" />
            <mxPoint x="233.72" y="430" as="targetPoint" />
          </mxGeometry>
        </mxCell>
        <mxCell id="l4umZkbyTSKqwTKvspyr-63" value="" style="endArrow=none;html=1;rounded=0;" edge="1" parent="1">
          <mxGeometry width="50" height="50" relative="1" as="geometry">
            <mxPoint x="243.72" y="390" as="sourcePoint" />
            <mxPoint x="243.72" y="430" as="targetPoint" />
          </mxGeometry>
        </mxCell>
        <mxCell id="l4umZkbyTSKqwTKvspyr-66" value="" style="endArrow=none;dashed=1;html=1;dashPattern=1 3;strokeWidth=1;rounded=0;endSize=6;" edge="1" parent="1">
          <mxGeometry width="50" height="50" relative="1" as="geometry">
            <mxPoint x="247.63" y="395" as="sourcePoint" />
            <mxPoint x="257.63" y="395" as="targetPoint" />
          </mxGeometry>
        </mxCell>
        <mxCell id="l4umZkbyTSKqwTKvspyr-67" value="" style="endArrow=none;dashed=1;html=1;dashPattern=1 3;strokeWidth=1;rounded=0;endSize=6;" edge="1" parent="1">
          <mxGeometry width="50" height="50" relative="1" as="geometry">
            <mxPoint x="247.63" y="405" as="sourcePoint" />
            <mxPoint x="257.63" y="405" as="targetPoint" />
          </mxGeometry>
        </mxCell>
        <mxCell id="l4umZkbyTSKqwTKvspyr-68" value="" style="endArrow=none;dashed=1;html=1;dashPattern=1 3;strokeWidth=1;rounded=0;endSize=6;" edge="1" parent="1">
          <mxGeometry width="50" height="50" relative="1" as="geometry">
            <mxPoint x="247.63" y="415" as="sourcePoint" />
            <mxPoint x="257.63" y="415" as="targetPoint" />
          </mxGeometry>
        </mxCell>
        <mxCell id="l4umZkbyTSKqwTKvspyr-69" value="" style="endArrow=none;dashed=1;html=1;dashPattern=1 3;strokeWidth=1;rounded=0;endSize=6;" edge="1" parent="1">
          <mxGeometry width="50" height="50" relative="1" as="geometry">
            <mxPoint x="247.63" y="425" as="sourcePoint" />
            <mxPoint x="257.63" y="425" as="targetPoint" />
          </mxGeometry>
        </mxCell>
        <mxCell id="l4umZkbyTSKqwTKvspyr-70" value="" style="endArrow=none;html=1;rounded=0;" edge="1" parent="1">
          <mxGeometry width="50" height="50" relative="1" as="geometry">
            <mxPoint x="337" y="415.43" as="sourcePoint" />
            <mxPoint x="421" y="415.43" as="targetPoint" />
          </mxGeometry>
        </mxCell>
        <mxCell id="l4umZkbyTSKqwTKvspyr-71" value="" style="endArrow=none;html=1;rounded=0;" edge="1" parent="1">
          <mxGeometry width="50" height="50" relative="1" as="geometry">
            <mxPoint x="337" y="405.43" as="sourcePoint" />
            <mxPoint x="421" y="405.43" as="targetPoint" />
          </mxGeometry>
        </mxCell>
        <mxCell id="l4umZkbyTSKqwTKvspyr-72" value="" style="endArrow=none;html=1;rounded=0;" edge="1" parent="1">
          <mxGeometry width="50" height="50" relative="1" as="geometry">
            <mxPoint x="337" y="415.43" as="sourcePoint" />
            <mxPoint x="337" y="405.43" as="targetPoint" />
          </mxGeometry>
        </mxCell>
        <mxCell id="l4umZkbyTSKqwTKvspyr-73" value="" style="endArrow=none;html=1;rounded=0;" edge="1" parent="1">
          <mxGeometry width="50" height="50" relative="1" as="geometry">
            <mxPoint x="421" y="415.43" as="sourcePoint" />
            <mxPoint x="421" y="405.43" as="targetPoint" />
          </mxGeometry>
        </mxCell>
        <mxCell id="l4umZkbyTSKqwTKvspyr-74" value="" style="endArrow=none;html=1;rounded=0;" edge="1" parent="1">
          <mxGeometry width="50" height="50" relative="1" as="geometry">
            <mxPoint x="347.26" y="415.43" as="sourcePoint" />
            <mxPoint x="347.26" y="405.43" as="targetPoint" />
          </mxGeometry>
        </mxCell>
        <mxCell id="l4umZkbyTSKqwTKvspyr-75" value="" style="endArrow=none;html=1;rounded=0;" edge="1" parent="1">
          <mxGeometry width="50" height="50" relative="1" as="geometry">
            <mxPoint x="357.26" y="415.43" as="sourcePoint" />
            <mxPoint x="357.26" y="405.43" as="targetPoint" />
          </mxGeometry>
        </mxCell>
        <mxCell id="l4umZkbyTSKqwTKvspyr-76" value="" style="endArrow=none;html=1;rounded=0;" edge="1" parent="1">
          <mxGeometry width="50" height="50" relative="1" as="geometry">
            <mxPoint x="367.26" y="415.43" as="sourcePoint" />
            <mxPoint x="367.26" y="405.43" as="targetPoint" />
          </mxGeometry>
        </mxCell>
        <mxCell id="l4umZkbyTSKqwTKvspyr-77" value="" style="endArrow=none;html=1;rounded=0;" edge="1" parent="1">
          <mxGeometry width="50" height="50" relative="1" as="geometry">
            <mxPoint x="377.26" y="415.43" as="sourcePoint" />
            <mxPoint x="377.26" y="405.43" as="targetPoint" />
          </mxGeometry>
        </mxCell>
        <mxCell id="l4umZkbyTSKqwTKvspyr-78" value="" style="endArrow=none;html=1;rounded=0;" edge="1" parent="1">
          <mxGeometry width="50" height="50" relative="1" as="geometry">
            <mxPoint x="387" y="415.43" as="sourcePoint" />
            <mxPoint x="387" y="405.43" as="targetPoint" />
          </mxGeometry>
        </mxCell>
        <mxCell id="l4umZkbyTSKqwTKvspyr-79" value="" style="endArrow=none;dashed=1;html=1;dashPattern=1 3;strokeWidth=1;rounded=0;endSize=6;" edge="1" parent="1">
          <mxGeometry width="50" height="50" relative="1" as="geometry">
            <mxPoint x="391" y="410.43" as="sourcePoint" />
            <mxPoint x="401" y="410.43" as="targetPoint" />
          </mxGeometry>
        </mxCell>
        <mxCell id="l4umZkbyTSKqwTKvspyr-80" value="Slice" style="text;html=1;align=center;verticalAlign=middle;whiteSpace=wrap;rounded=0;fontFamily=Garamond;" vertex="1" parent="1">
          <mxGeometry x="339" y="411.43" width="79.68" height="30" as="geometry" />
        </mxCell>
        <mxCell id="l4umZkbyTSKqwTKvspyr-82" value="" style="curved=1;endArrow=classic;html=1;rounded=0;endSize=3;" edge="1" parent="1">
          <mxGeometry width="50" height="50" relative="1" as="geometry">
            <mxPoint x="284" y="395" as="sourcePoint" />
            <mxPoint x="332" y="410" as="targetPoint" />
            <Array as="points">
              <mxPoint x="302" y="410" />
            </Array>
          </mxGeometry>
        </mxCell>
        <mxCell id="l4umZkbyTSKqwTKvspyr-83" value="" style="curved=1;endArrow=classic;html=1;rounded=0;endSize=3;" edge="1" parent="1">
          <mxGeometry width="50" height="50" relative="1" as="geometry">
            <mxPoint x="430" y="411.43" as="sourcePoint" />
            <mxPoint x="478" y="426.43" as="targetPoint" />
            <Array as="points">
              <mxPoint x="448" y="426.43" />
            </Array>
          </mxGeometry>
        </mxCell>
        <mxCell id="l4umZkbyTSKqwTKvspyr-84" value="" style="whiteSpace=wrap;html=1;aspect=fixed;" vertex="1" parent="1">
          <mxGeometry x="490" y="412.43" width="29" height="29" as="geometry" />
        </mxCell>
        <mxCell id="l4umZkbyTSKqwTKvspyr-85" value="Macroblock" style="text;html=1;align=center;verticalAlign=middle;whiteSpace=wrap;rounded=0;fontFamily=Garamond;" vertex="1" parent="1">
          <mxGeometry x="464.65999999999997" y="441.43" width="79.68" height="30" as="geometry" />
        </mxCell>
      </root>
    </mxGraphModel>
  </diagram>
</mxfile>
